<mxfile host="app.diagrams.net" modified="2024-07-09T06:29:06.141Z" agent="Mozilla/5.0 (Windows NT 10.0; Win64; x64) AppleWebKit/537.36 (KHTML, like Gecko) Chrome/126.0.0.0 Safari/537.36 Edg/126.0.0.0" etag="WRWSAcxoF91L2SSUdrQj" version="24.6.4" type="github">
  <diagram id="C5RBs43oDa-KdzZeNtuy" name="Page-1">
    <mxGraphModel dx="1426" dy="785" grid="1" gridSize="10" guides="1" tooltips="1" connect="1" arrows="1" fold="1" page="1" pageScale="1" pageWidth="827" pageHeight="1169" math="0" shadow="0">
      <root>
        <mxCell id="WIyWlLk6GJQsqaUBKTNV-0" />
        <mxCell id="WIyWlLk6GJQsqaUBKTNV-1" parent="WIyWlLk6GJQsqaUBKTNV-0" />
        <mxCell id="h221-9iBM7-Na-v-GaBF-113" value="" style="rounded=0;whiteSpace=wrap;html=1;" vertex="1" parent="WIyWlLk6GJQsqaUBKTNV-1">
          <mxGeometry x="2170" y="160" width="560" height="730" as="geometry" />
        </mxCell>
        <mxCell id="h221-9iBM7-Na-v-GaBF-30" value="" style="whiteSpace=wrap;html=1;aspect=fixed;" vertex="1" parent="WIyWlLk6GJQsqaUBKTNV-1">
          <mxGeometry x="570" y="390" width="140" height="140" as="geometry" />
        </mxCell>
        <mxCell id="h221-9iBM7-Na-v-GaBF-18" value="" style="rounded=0;whiteSpace=wrap;html=1;" vertex="1" parent="WIyWlLk6GJQsqaUBKTNV-1">
          <mxGeometry x="80" y="150" width="380" height="710" as="geometry" />
        </mxCell>
        <mxCell id="h221-9iBM7-Na-v-GaBF-11" value="gow_project_info" style="rounded=0;whiteSpace=wrap;html=1;" vertex="1" parent="WIyWlLk6GJQsqaUBKTNV-1">
          <mxGeometry x="100" y="250" width="120" height="60" as="geometry" />
        </mxCell>
        <mxCell id="h221-9iBM7-Na-v-GaBF-12" value="三方结算机构" style="text;html=1;align=center;verticalAlign=middle;whiteSpace=wrap;rounded=0;" vertex="1" parent="WIyWlLk6GJQsqaUBKTNV-1">
          <mxGeometry x="120" y="220" width="80" height="30" as="geometry" />
        </mxCell>
        <mxCell id="h221-9iBM7-Na-v-GaBF-13" value="" style="endArrow=classic;html=1;rounded=0;entryX=0;entryY=0.5;entryDx=0;entryDy=0;" edge="1" parent="WIyWlLk6GJQsqaUBKTNV-1" target="h221-9iBM7-Na-v-GaBF-14">
          <mxGeometry width="50" height="50" relative="1" as="geometry">
            <mxPoint x="220" y="280" as="sourcePoint" />
            <mxPoint x="310" y="280" as="targetPoint" />
          </mxGeometry>
        </mxCell>
        <mxCell id="h221-9iBM7-Na-v-GaBF-14" value="gow_business_apply" style="rounded=0;whiteSpace=wrap;html=1;" vertex="1" parent="WIyWlLk6GJQsqaUBKTNV-1">
          <mxGeometry x="320" y="320" width="120" height="60" as="geometry" />
        </mxCell>
        <mxCell id="h221-9iBM7-Na-v-GaBF-15" value="业务批次表" style="text;html=1;align=center;verticalAlign=middle;whiteSpace=wrap;rounded=0;" vertex="1" parent="WIyWlLk6GJQsqaUBKTNV-1">
          <mxGeometry x="350" y="280" width="60" height="30" as="geometry" />
        </mxCell>
        <mxCell id="h221-9iBM7-Na-v-GaBF-16" value="上传文件" style="ellipse;whiteSpace=wrap;html=1;" vertex="1" parent="WIyWlLk6GJQsqaUBKTNV-1">
          <mxGeometry x="100" y="410" width="120" height="80" as="geometry" />
        </mxCell>
        <mxCell id="h221-9iBM7-Na-v-GaBF-17" value="" style="endArrow=classic;html=1;rounded=0;entryX=0;entryY=0.5;entryDx=0;entryDy=0;" edge="1" parent="WIyWlLk6GJQsqaUBKTNV-1" target="h221-9iBM7-Na-v-GaBF-14">
          <mxGeometry width="50" height="50" relative="1" as="geometry">
            <mxPoint x="220" y="440" as="sourcePoint" />
            <mxPoint x="270" y="390" as="targetPoint" />
          </mxGeometry>
        </mxCell>
        <mxCell id="h221-9iBM7-Na-v-GaBF-20" value="" style="rounded=0;whiteSpace=wrap;html=1;" vertex="1" parent="WIyWlLk6GJQsqaUBKTNV-1">
          <mxGeometry x="560" y="150" width="380" height="390" as="geometry" />
        </mxCell>
        <mxCell id="h221-9iBM7-Na-v-GaBF-29" style="edgeStyle=orthogonalEdgeStyle;rounded=0;orthogonalLoop=1;jettySize=auto;html=1;exitX=1;exitY=0.5;exitDx=0;exitDy=0;" edge="1" parent="WIyWlLk6GJQsqaUBKTNV-1" source="h221-9iBM7-Na-v-GaBF-22" target="h221-9iBM7-Na-v-GaBF-23">
          <mxGeometry relative="1" as="geometry">
            <Array as="points">
              <mxPoint x="680" y="220" />
              <mxPoint x="760" y="220" />
            </Array>
          </mxGeometry>
        </mxCell>
        <mxCell id="h221-9iBM7-Na-v-GaBF-22" value="sys_dic" style="rounded=0;whiteSpace=wrap;html=1;" vertex="1" parent="WIyWlLk6GJQsqaUBKTNV-1">
          <mxGeometry x="580" y="210" width="100" height="60" as="geometry" />
        </mxCell>
        <mxCell id="h221-9iBM7-Na-v-GaBF-35" style="edgeStyle=orthogonalEdgeStyle;rounded=0;orthogonalLoop=1;jettySize=auto;html=1;exitX=0.5;exitY=1;exitDx=0;exitDy=0;entryX=0.85;entryY=0.1;entryDx=0;entryDy=0;entryPerimeter=0;" edge="1" parent="WIyWlLk6GJQsqaUBKTNV-1" source="h221-9iBM7-Na-v-GaBF-23" target="h221-9iBM7-Na-v-GaBF-32">
          <mxGeometry relative="1" as="geometry" />
        </mxCell>
        <mxCell id="h221-9iBM7-Na-v-GaBF-23" value="gow_settlement_apply" style="rounded=0;whiteSpace=wrap;html=1;" vertex="1" parent="WIyWlLk6GJQsqaUBKTNV-1">
          <mxGeometry x="700" y="320" width="120" height="60" as="geometry" />
        </mxCell>
        <mxCell id="h221-9iBM7-Na-v-GaBF-24" value="开票批次创建" style="text;html=1;align=center;verticalAlign=middle;whiteSpace=wrap;rounded=0;" vertex="1" parent="WIyWlLk6GJQsqaUBKTNV-1">
          <mxGeometry x="220" y="170" width="120" height="30" as="geometry" />
        </mxCell>
        <mxCell id="h221-9iBM7-Na-v-GaBF-25" value="开票申请创建" style="text;html=1;align=center;verticalAlign=middle;whiteSpace=wrap;rounded=0;" vertex="1" parent="WIyWlLk6GJQsqaUBKTNV-1">
          <mxGeometry x="700" y="170" width="110" height="30" as="geometry" />
        </mxCell>
        <mxCell id="h221-9iBM7-Na-v-GaBF-27" value="" style="endArrow=classic;html=1;rounded=0;exitX=1;exitY=0.5;exitDx=0;exitDy=0;entryX=0;entryY=0.5;entryDx=0;entryDy=0;" edge="1" parent="WIyWlLk6GJQsqaUBKTNV-1" source="h221-9iBM7-Na-v-GaBF-14" target="h221-9iBM7-Na-v-GaBF-23">
          <mxGeometry width="50" height="50" relative="1" as="geometry">
            <mxPoint x="390" y="430" as="sourcePoint" />
            <mxPoint x="440" y="380" as="targetPoint" />
          </mxGeometry>
        </mxCell>
        <mxCell id="h221-9iBM7-Na-v-GaBF-32" value="invoioce" style="rounded=0;whiteSpace=wrap;html=1;" vertex="1" parent="WIyWlLk6GJQsqaUBKTNV-1">
          <mxGeometry x="580" y="420" width="120" height="30" as="geometry" />
        </mxCell>
        <mxCell id="h221-9iBM7-Na-v-GaBF-37" style="edgeStyle=orthogonalEdgeStyle;rounded=0;orthogonalLoop=1;jettySize=auto;html=1;exitX=1;exitY=0.5;exitDx=0;exitDy=0;entryX=0.75;entryY=1;entryDx=0;entryDy=0;" edge="1" parent="WIyWlLk6GJQsqaUBKTNV-1" source="h221-9iBM7-Na-v-GaBF-33" target="h221-9iBM7-Na-v-GaBF-23">
          <mxGeometry relative="1" as="geometry" />
        </mxCell>
        <mxCell id="h221-9iBM7-Na-v-GaBF-33" value="gow_settlement_institution" style="rounded=0;whiteSpace=wrap;html=1;" vertex="1" parent="WIyWlLk6GJQsqaUBKTNV-1">
          <mxGeometry x="570" y="460" width="130" height="30" as="geometry" />
        </mxCell>
        <mxCell id="h221-9iBM7-Na-v-GaBF-31" value="input" style="text;html=1;align=center;verticalAlign=middle;whiteSpace=wrap;rounded=0;" vertex="1" parent="WIyWlLk6GJQsqaUBKTNV-1">
          <mxGeometry x="600" y="390" width="60" height="30" as="geometry" />
        </mxCell>
        <mxCell id="h221-9iBM7-Na-v-GaBF-47" value="审核" style="shape=process;whiteSpace=wrap;html=1;backgroundOutline=1;" vertex="1" parent="WIyWlLk6GJQsqaUBKTNV-1">
          <mxGeometry x="1050" y="20" width="120" height="60" as="geometry" />
        </mxCell>
        <mxCell id="h221-9iBM7-Na-v-GaBF-48" value="开票批次创建" style="shape=process;whiteSpace=wrap;html=1;backgroundOutline=1;" vertex="1" parent="WIyWlLk6GJQsqaUBKTNV-1">
          <mxGeometry x="210" y="20" width="120" height="60" as="geometry" />
        </mxCell>
        <mxCell id="h221-9iBM7-Na-v-GaBF-50" style="edgeStyle=orthogonalEdgeStyle;rounded=0;orthogonalLoop=1;jettySize=auto;html=1;exitX=1;exitY=0.5;exitDx=0;exitDy=0;" edge="1" parent="WIyWlLk6GJQsqaUBKTNV-1" source="h221-9iBM7-Na-v-GaBF-49" target="h221-9iBM7-Na-v-GaBF-47">
          <mxGeometry relative="1" as="geometry" />
        </mxCell>
        <mxCell id="h221-9iBM7-Na-v-GaBF-49" value="开票申请创建" style="shape=process;whiteSpace=wrap;html=1;backgroundOutline=1;" vertex="1" parent="WIyWlLk6GJQsqaUBKTNV-1">
          <mxGeometry x="700" y="20" width="120" height="60" as="geometry" />
        </mxCell>
        <mxCell id="h221-9iBM7-Na-v-GaBF-51" value="" style="rounded=0;whiteSpace=wrap;html=1;" vertex="1" parent="WIyWlLk6GJQsqaUBKTNV-1">
          <mxGeometry x="970" y="160" width="1020" height="850" as="geometry" />
        </mxCell>
        <mxCell id="h221-9iBM7-Na-v-GaBF-52" value="审核" style="text;html=1;align=center;verticalAlign=middle;whiteSpace=wrap;rounded=0;" vertex="1" parent="WIyWlLk6GJQsqaUBKTNV-1">
          <mxGeometry x="1170" y="160" width="60" height="30" as="geometry" />
        </mxCell>
        <mxCell id="h221-9iBM7-Na-v-GaBF-54" style="edgeStyle=orthogonalEdgeStyle;rounded=0;orthogonalLoop=1;jettySize=auto;html=1;exitX=0;exitY=0.5;exitDx=0;exitDy=0;entryX=1;entryY=0.5;entryDx=0;entryDy=0;" edge="1" parent="WIyWlLk6GJQsqaUBKTNV-1" source="h221-9iBM7-Na-v-GaBF-53" target="h221-9iBM7-Na-v-GaBF-32">
          <mxGeometry relative="1" as="geometry" />
        </mxCell>
        <mxCell id="h221-9iBM7-Na-v-GaBF-55" value="更新主体" style="edgeLabel;html=1;align=center;verticalAlign=middle;resizable=0;points=[];" vertex="1" connectable="0" parent="h221-9iBM7-Na-v-GaBF-54">
          <mxGeometry x="-0.4887" y="-3" relative="1" as="geometry">
            <mxPoint as="offset" />
          </mxGeometry>
        </mxCell>
        <mxCell id="h221-9iBM7-Na-v-GaBF-57" style="edgeStyle=orthogonalEdgeStyle;rounded=0;orthogonalLoop=1;jettySize=auto;html=1;exitX=0;exitY=0.75;exitDx=0;exitDy=0;entryX=0.5;entryY=1;entryDx=0;entryDy=0;" edge="1" parent="WIyWlLk6GJQsqaUBKTNV-1" source="h221-9iBM7-Na-v-GaBF-53" target="h221-9iBM7-Na-v-GaBF-56">
          <mxGeometry relative="1" as="geometry" />
        </mxCell>
        <mxCell id="h221-9iBM7-Na-v-GaBF-58" value="更新主体" style="edgeLabel;html=1;align=center;verticalAlign=middle;resizable=0;points=[];" vertex="1" connectable="0" parent="h221-9iBM7-Na-v-GaBF-57">
          <mxGeometry x="0.6564" y="4" relative="1" as="geometry">
            <mxPoint as="offset" />
          </mxGeometry>
        </mxCell>
        <mxCell id="h221-9iBM7-Na-v-GaBF-74" style="edgeStyle=orthogonalEdgeStyle;rounded=0;orthogonalLoop=1;jettySize=auto;html=1;exitX=1;exitY=0.5;exitDx=0;exitDy=0;entryX=0.5;entryY=0;entryDx=0;entryDy=0;" edge="1" parent="WIyWlLk6GJQsqaUBKTNV-1" source="h221-9iBM7-Na-v-GaBF-53" target="h221-9iBM7-Na-v-GaBF-73">
          <mxGeometry relative="1" as="geometry" />
        </mxCell>
        <mxCell id="h221-9iBM7-Na-v-GaBF-53" value="通过" style="shape=process;whiteSpace=wrap;html=1;backgroundOutline=1;" vertex="1" parent="WIyWlLk6GJQsqaUBKTNV-1">
          <mxGeometry x="1150" y="190" width="120" height="60" as="geometry" />
        </mxCell>
        <mxCell id="h221-9iBM7-Na-v-GaBF-56" value="gow_settlement" style="rounded=0;whiteSpace=wrap;html=1;" vertex="1" parent="WIyWlLk6GJQsqaUBKTNV-1">
          <mxGeometry x="280" y="450" width="130" height="40" as="geometry" />
        </mxCell>
        <mxCell id="h221-9iBM7-Na-v-GaBF-59" style="edgeStyle=orthogonalEdgeStyle;rounded=0;orthogonalLoop=1;jettySize=auto;html=1;exitX=0;exitY=0.25;exitDx=0;exitDy=0;entryX=1.008;entryY=0.383;entryDx=0;entryDy=0;entryPerimeter=0;" edge="1" parent="WIyWlLk6GJQsqaUBKTNV-1" source="h221-9iBM7-Na-v-GaBF-53" target="h221-9iBM7-Na-v-GaBF-23">
          <mxGeometry relative="1" as="geometry" />
        </mxCell>
        <mxCell id="h221-9iBM7-Na-v-GaBF-60" value="更新评论&lt;div&gt;更新垫资&lt;/div&gt;" style="edgeLabel;html=1;align=center;verticalAlign=middle;resizable=0;points=[];" vertex="1" connectable="0" parent="h221-9iBM7-Na-v-GaBF-59">
          <mxGeometry x="0.0149" relative="1" as="geometry">
            <mxPoint as="offset" />
          </mxGeometry>
        </mxCell>
        <mxCell id="h221-9iBM7-Na-v-GaBF-65" style="edgeStyle=orthogonalEdgeStyle;rounded=0;orthogonalLoop=1;jettySize=auto;html=1;exitX=0;exitY=0.5;exitDx=0;exitDy=0;entryX=1;entryY=0.75;entryDx=0;entryDy=0;" edge="1" parent="WIyWlLk6GJQsqaUBKTNV-1" source="h221-9iBM7-Na-v-GaBF-62" target="h221-9iBM7-Na-v-GaBF-23">
          <mxGeometry relative="1" as="geometry" />
        </mxCell>
        <mxCell id="h221-9iBM7-Na-v-GaBF-66" value="更新评论，垫资，" style="edgeLabel;html=1;align=center;verticalAlign=middle;resizable=0;points=[];" vertex="1" connectable="0" parent="h221-9iBM7-Na-v-GaBF-65">
          <mxGeometry x="-0.2471" relative="1" as="geometry">
            <mxPoint as="offset" />
          </mxGeometry>
        </mxCell>
        <mxCell id="h221-9iBM7-Na-v-GaBF-62" value="驳回（更新磐石同步状态？）" style="shape=process;whiteSpace=wrap;html=1;backgroundOutline=1;" vertex="1" parent="WIyWlLk6GJQsqaUBKTNV-1">
          <mxGeometry x="1150" y="260" width="120" height="60" as="geometry" />
        </mxCell>
        <mxCell id="h221-9iBM7-Na-v-GaBF-67" value="上传凭证" style="shape=process;whiteSpace=wrap;html=1;backgroundOutline=1;" vertex="1" parent="WIyWlLk6GJQsqaUBKTNV-1">
          <mxGeometry x="1150" y="330" width="120" height="60" as="geometry" />
        </mxCell>
        <mxCell id="h221-9iBM7-Na-v-GaBF-82" style="edgeStyle=orthogonalEdgeStyle;rounded=0;orthogonalLoop=1;jettySize=auto;html=1;exitX=0.5;exitY=1;exitDx=0;exitDy=0;" edge="1" parent="WIyWlLk6GJQsqaUBKTNV-1" source="h221-9iBM7-Na-v-GaBF-70" target="h221-9iBM7-Na-v-GaBF-80">
          <mxGeometry relative="1" as="geometry" />
        </mxCell>
        <mxCell id="h221-9iBM7-Na-v-GaBF-83" style="edgeStyle=orthogonalEdgeStyle;rounded=0;orthogonalLoop=1;jettySize=auto;html=1;exitX=0.5;exitY=1;exitDx=0;exitDy=0;entryX=0.5;entryY=0;entryDx=0;entryDy=0;" edge="1" parent="WIyWlLk6GJQsqaUBKTNV-1" source="h221-9iBM7-Na-v-GaBF-70" target="h221-9iBM7-Na-v-GaBF-81">
          <mxGeometry relative="1" as="geometry" />
        </mxCell>
        <mxCell id="h221-9iBM7-Na-v-GaBF-70" value="反审核" style="shape=process;whiteSpace=wrap;html=1;backgroundOutline=1;" vertex="1" parent="WIyWlLk6GJQsqaUBKTNV-1">
          <mxGeometry x="1150" y="405" width="120" height="60" as="geometry" />
        </mxCell>
        <mxCell id="h221-9iBM7-Na-v-GaBF-77" style="edgeStyle=orthogonalEdgeStyle;rounded=0;orthogonalLoop=1;jettySize=auto;html=1;exitX=0.5;exitY=1;exitDx=0;exitDy=0;entryX=1;entryY=0.5;entryDx=0;entryDy=0;" edge="1" parent="WIyWlLk6GJQsqaUBKTNV-1" source="h221-9iBM7-Na-v-GaBF-73" target="h221-9iBM7-Na-v-GaBF-67">
          <mxGeometry relative="1" as="geometry" />
        </mxCell>
        <mxCell id="h221-9iBM7-Na-v-GaBF-78" style="edgeStyle=orthogonalEdgeStyle;rounded=0;orthogonalLoop=1;jettySize=auto;html=1;exitX=0.5;exitY=1;exitDx=0;exitDy=0;entryX=1;entryY=0.5;entryDx=0;entryDy=0;" edge="1" parent="WIyWlLk6GJQsqaUBKTNV-1" source="h221-9iBM7-Na-v-GaBF-73" target="h221-9iBM7-Na-v-GaBF-70">
          <mxGeometry relative="1" as="geometry" />
        </mxCell>
        <mxCell id="h221-9iBM7-Na-v-GaBF-79" value="yes" style="edgeLabel;html=1;align=center;verticalAlign=middle;resizable=0;points=[];" vertex="1" connectable="0" parent="h221-9iBM7-Na-v-GaBF-78">
          <mxGeometry x="-0.8391" y="-3" relative="1" as="geometry">
            <mxPoint as="offset" />
          </mxGeometry>
        </mxCell>
        <mxCell id="h221-9iBM7-Na-v-GaBF-73" value="通过" style="rhombus;whiteSpace=wrap;html=1;" vertex="1" parent="WIyWlLk6GJQsqaUBKTNV-1">
          <mxGeometry x="1510" y="200" width="80" height="80" as="geometry" />
        </mxCell>
        <mxCell id="h221-9iBM7-Na-v-GaBF-75" style="edgeStyle=orthogonalEdgeStyle;rounded=0;orthogonalLoop=1;jettySize=auto;html=1;entryX=1;entryY=0.617;entryDx=0;entryDy=0;entryPerimeter=0;" edge="1" parent="WIyWlLk6GJQsqaUBKTNV-1" source="h221-9iBM7-Na-v-GaBF-73" target="h221-9iBM7-Na-v-GaBF-62">
          <mxGeometry relative="1" as="geometry" />
        </mxCell>
        <mxCell id="h221-9iBM7-Na-v-GaBF-76" value="noi" style="edgeLabel;html=1;align=center;verticalAlign=middle;resizable=0;points=[];" vertex="1" connectable="0" parent="h221-9iBM7-Na-v-GaBF-75">
          <mxGeometry x="-0.0774" y="-1" relative="1" as="geometry">
            <mxPoint as="offset" />
          </mxGeometry>
        </mxCell>
        <mxCell id="h221-9iBM7-Na-v-GaBF-104" style="edgeStyle=orthogonalEdgeStyle;rounded=0;orthogonalLoop=1;jettySize=auto;html=1;exitX=0.75;exitY=1;exitDx=0;exitDy=0;" edge="1" parent="WIyWlLk6GJQsqaUBKTNV-1" source="h221-9iBM7-Na-v-GaBF-80" target="h221-9iBM7-Na-v-GaBF-86">
          <mxGeometry relative="1" as="geometry">
            <Array as="points">
              <mxPoint x="1060" y="600" />
              <mxPoint x="1060" y="620" />
              <mxPoint x="1820" y="620" />
            </Array>
          </mxGeometry>
        </mxCell>
        <mxCell id="h221-9iBM7-Na-v-GaBF-105" value="remove" style="edgeLabel;html=1;align=center;verticalAlign=middle;resizable=0;points=[];" vertex="1" connectable="0" parent="h221-9iBM7-Na-v-GaBF-104">
          <mxGeometry x="0.3707" y="-3" relative="1" as="geometry">
            <mxPoint as="offset" />
          </mxGeometry>
        </mxCell>
        <mxCell id="h221-9iBM7-Na-v-GaBF-80" value="返回待审核" style="shape=process;whiteSpace=wrap;html=1;backgroundOutline=1;" vertex="1" parent="WIyWlLk6GJQsqaUBKTNV-1">
          <mxGeometry x="1000" y="540" width="120" height="60" as="geometry" />
        </mxCell>
        <mxCell id="h221-9iBM7-Na-v-GaBF-108" style="edgeStyle=orthogonalEdgeStyle;rounded=0;orthogonalLoop=1;jettySize=auto;html=1;exitX=0.5;exitY=1;exitDx=0;exitDy=0;entryX=0.25;entryY=1;entryDx=0;entryDy=0;" edge="1" parent="WIyWlLk6GJQsqaUBKTNV-1" source="h221-9iBM7-Na-v-GaBF-81" target="h221-9iBM7-Na-v-GaBF-86">
          <mxGeometry relative="1" as="geometry">
            <Array as="points">
              <mxPoint x="1210" y="650" />
              <mxPoint x="1790" y="650" />
            </Array>
          </mxGeometry>
        </mxCell>
        <mxCell id="h221-9iBM7-Na-v-GaBF-109" value="create" style="edgeLabel;html=1;align=center;verticalAlign=middle;resizable=0;points=[];" vertex="1" connectable="0" parent="h221-9iBM7-Na-v-GaBF-108">
          <mxGeometry x="-0.4265" relative="1" as="geometry">
            <mxPoint as="offset" />
          </mxGeometry>
        </mxCell>
        <mxCell id="h221-9iBM7-Na-v-GaBF-110" style="edgeStyle=orthogonalEdgeStyle;rounded=0;orthogonalLoop=1;jettySize=auto;html=1;exitX=0.5;exitY=1;exitDx=0;exitDy=0;entryX=1;entryY=1;entryDx=0;entryDy=0;" edge="1" parent="WIyWlLk6GJQsqaUBKTNV-1" source="h221-9iBM7-Na-v-GaBF-81" target="h221-9iBM7-Na-v-GaBF-23">
          <mxGeometry relative="1" as="geometry" />
        </mxCell>
        <mxCell id="h221-9iBM7-Na-v-GaBF-111" style="edgeStyle=orthogonalEdgeStyle;rounded=0;orthogonalLoop=1;jettySize=auto;html=1;exitX=0.5;exitY=1;exitDx=0;exitDy=0;entryX=0.75;entryY=1;entryDx=0;entryDy=0;" edge="1" parent="WIyWlLk6GJQsqaUBKTNV-1" source="h221-9iBM7-Na-v-GaBF-81" target="h221-9iBM7-Na-v-GaBF-32">
          <mxGeometry relative="1" as="geometry" />
        </mxCell>
        <mxCell id="h221-9iBM7-Na-v-GaBF-112" value="Text" style="edgeLabel;html=1;align=center;verticalAlign=middle;resizable=0;points=[];" vertex="1" connectable="0" parent="h221-9iBM7-Na-v-GaBF-111">
          <mxGeometry x="-0.6904" y="-2" relative="1" as="geometry">
            <mxPoint as="offset" />
          </mxGeometry>
        </mxCell>
        <mxCell id="h221-9iBM7-Na-v-GaBF-81" value="驳回" style="shape=process;whiteSpace=wrap;html=1;backgroundOutline=1;" vertex="1" parent="WIyWlLk6GJQsqaUBKTNV-1">
          <mxGeometry x="1150" y="540" width="120" height="60" as="geometry" />
        </mxCell>
        <mxCell id="h221-9iBM7-Na-v-GaBF-89" style="edgeStyle=orthogonalEdgeStyle;rounded=0;orthogonalLoop=1;jettySize=auto;html=1;exitX=0.5;exitY=1;exitDx=0;exitDy=0;entryX=0.5;entryY=0;entryDx=0;entryDy=0;" edge="1" parent="WIyWlLk6GJQsqaUBKTNV-1" source="h221-9iBM7-Na-v-GaBF-84" target="h221-9iBM7-Na-v-GaBF-87">
          <mxGeometry relative="1" as="geometry">
            <Array as="points">
              <mxPoint x="2450" y="630" />
              <mxPoint x="2451" y="630" />
            </Array>
          </mxGeometry>
        </mxCell>
        <mxCell id="h221-9iBM7-Na-v-GaBF-84" value="冲正" style="shape=process;whiteSpace=wrap;html=1;backgroundOutline=1;" vertex="1" parent="WIyWlLk6GJQsqaUBKTNV-1">
          <mxGeometry x="2390" y="540" width="120" height="60" as="geometry" />
        </mxCell>
        <mxCell id="h221-9iBM7-Na-v-GaBF-86" value="approve_record" style="rounded=0;whiteSpace=wrap;html=1;" vertex="1" parent="WIyWlLk6GJQsqaUBKTNV-1">
          <mxGeometry x="1760" y="390" width="120" height="60" as="geometry" />
        </mxCell>
        <mxCell id="h221-9iBM7-Na-v-GaBF-90" style="edgeStyle=orthogonalEdgeStyle;rounded=0;orthogonalLoop=1;jettySize=auto;html=1;exitX=0.5;exitY=1;exitDx=0;exitDy=0;entryX=0.5;entryY=0;entryDx=0;entryDy=0;" edge="1" parent="WIyWlLk6GJQsqaUBKTNV-1" source="h221-9iBM7-Na-v-GaBF-87" target="h221-9iBM7-Na-v-GaBF-88">
          <mxGeometry relative="1" as="geometry" />
        </mxCell>
        <mxCell id="h221-9iBM7-Na-v-GaBF-91" value="no" style="edgeLabel;html=1;align=center;verticalAlign=middle;resizable=0;points=[];" vertex="1" connectable="0" parent="h221-9iBM7-Na-v-GaBF-90">
          <mxGeometry x="-0.24" y="1" relative="1" as="geometry">
            <mxPoint as="offset" />
          </mxGeometry>
        </mxCell>
        <mxCell id="h221-9iBM7-Na-v-GaBF-93" style="edgeStyle=orthogonalEdgeStyle;rounded=0;orthogonalLoop=1;jettySize=auto;html=1;exitX=1;exitY=0.5;exitDx=0;exitDy=0;" edge="1" parent="WIyWlLk6GJQsqaUBKTNV-1" source="h221-9iBM7-Na-v-GaBF-87" target="h221-9iBM7-Na-v-GaBF-92">
          <mxGeometry relative="1" as="geometry" />
        </mxCell>
        <mxCell id="h221-9iBM7-Na-v-GaBF-98" value="yes" style="edgeLabel;html=1;align=center;verticalAlign=middle;resizable=0;points=[];" vertex="1" connectable="0" parent="h221-9iBM7-Na-v-GaBF-93">
          <mxGeometry x="-0.1333" y="-2" relative="1" as="geometry">
            <mxPoint as="offset" />
          </mxGeometry>
        </mxCell>
        <mxCell id="h221-9iBM7-Na-v-GaBF-87" value="是否跨月" style="rhombus;whiteSpace=wrap;html=1;" vertex="1" parent="WIyWlLk6GJQsqaUBKTNV-1">
          <mxGeometry x="2410" y="650" width="80" height="80" as="geometry" />
        </mxCell>
        <mxCell id="h221-9iBM7-Na-v-GaBF-96" style="edgeStyle=orthogonalEdgeStyle;rounded=0;orthogonalLoop=1;jettySize=auto;html=1;entryX=0;entryY=1;entryDx=0;entryDy=0;" edge="1" parent="WIyWlLk6GJQsqaUBKTNV-1" source="h221-9iBM7-Na-v-GaBF-88" target="h221-9iBM7-Na-v-GaBF-92">
          <mxGeometry relative="1" as="geometry" />
        </mxCell>
        <mxCell id="h221-9iBM7-Na-v-GaBF-97" value="yes" style="edgeLabel;html=1;align=center;verticalAlign=middle;resizable=0;points=[];" vertex="1" connectable="0" parent="h221-9iBM7-Na-v-GaBF-96">
          <mxGeometry x="-0.5017" y="-1" relative="1" as="geometry">
            <mxPoint as="offset" />
          </mxGeometry>
        </mxCell>
        <mxCell id="h221-9iBM7-Na-v-GaBF-99" style="edgeStyle=orthogonalEdgeStyle;rounded=0;orthogonalLoop=1;jettySize=auto;html=1;entryX=1;entryY=1;entryDx=0;entryDy=0;" edge="1" parent="WIyWlLk6GJQsqaUBKTNV-1" source="h221-9iBM7-Na-v-GaBF-88" target="h221-9iBM7-Na-v-GaBF-23">
          <mxGeometry relative="1" as="geometry" />
        </mxCell>
        <mxCell id="h221-9iBM7-Na-v-GaBF-100" value="更新状态" style="edgeLabel;html=1;align=center;verticalAlign=middle;resizable=0;points=[];" vertex="1" connectable="0" parent="h221-9iBM7-Na-v-GaBF-99">
          <mxGeometry x="0.3927" y="-3" relative="1" as="geometry">
            <mxPoint as="offset" />
          </mxGeometry>
        </mxCell>
        <mxCell id="h221-9iBM7-Na-v-GaBF-101" value="no" style="edgeLabel;html=1;align=center;verticalAlign=middle;resizable=0;points=[];" vertex="1" connectable="0" parent="h221-9iBM7-Na-v-GaBF-99">
          <mxGeometry x="-0.9009" y="-1" relative="1" as="geometry">
            <mxPoint as="offset" />
          </mxGeometry>
        </mxCell>
        <mxCell id="h221-9iBM7-Na-v-GaBF-103" style="edgeStyle=orthogonalEdgeStyle;rounded=0;orthogonalLoop=1;jettySize=auto;html=1;exitX=0;exitY=0.5;exitDx=0;exitDy=0;" edge="1" parent="WIyWlLk6GJQsqaUBKTNV-1" source="h221-9iBM7-Na-v-GaBF-88" target="h221-9iBM7-Na-v-GaBF-102">
          <mxGeometry relative="1" as="geometry" />
        </mxCell>
        <mxCell id="h221-9iBM7-Na-v-GaBF-88" value="是否核销&lt;div&gt;(sa,invoice)&lt;/div&gt;" style="rhombus;whiteSpace=wrap;html=1;" vertex="1" parent="WIyWlLk6GJQsqaUBKTNV-1">
          <mxGeometry x="2411" y="760" width="80" height="80" as="geometry" />
        </mxCell>
        <mxCell id="h221-9iBM7-Na-v-GaBF-92" value="end" style="ellipse;whiteSpace=wrap;html=1;" vertex="1" parent="WIyWlLk6GJQsqaUBKTNV-1">
          <mxGeometry x="2520" y="770" width="80" height="60" as="geometry" />
        </mxCell>
        <mxCell id="h221-9iBM7-Na-v-GaBF-102" value="gow_data_pool" style="rounded=0;whiteSpace=wrap;html=1;" vertex="1" parent="WIyWlLk6GJQsqaUBKTNV-1">
          <mxGeometry x="280" y="610" width="120" height="40" as="geometry" />
        </mxCell>
        <mxCell id="h221-9iBM7-Na-v-GaBF-106" style="edgeStyle=orthogonalEdgeStyle;rounded=0;orthogonalLoop=1;jettySize=auto;html=1;exitX=0.5;exitY=1;exitDx=0;exitDy=0;entryX=0.825;entryY=1;entryDx=0;entryDy=0;entryPerimeter=0;" edge="1" parent="WIyWlLk6GJQsqaUBKTNV-1" source="h221-9iBM7-Na-v-GaBF-80" target="h221-9iBM7-Na-v-GaBF-23">
          <mxGeometry relative="1" as="geometry" />
        </mxCell>
        <mxCell id="h221-9iBM7-Na-v-GaBF-107" value="返回一审" style="edgeLabel;html=1;align=center;verticalAlign=middle;resizable=0;points=[];" vertex="1" connectable="0" parent="h221-9iBM7-Na-v-GaBF-106">
          <mxGeometry x="-0.3781" y="-3" relative="1" as="geometry">
            <mxPoint as="offset" />
          </mxGeometry>
        </mxCell>
        <mxCell id="h221-9iBM7-Na-v-GaBF-114" value="开票回款" style="text;html=1;align=center;verticalAlign=middle;whiteSpace=wrap;rounded=0;" vertex="1" parent="WIyWlLk6GJQsqaUBKTNV-1">
          <mxGeometry x="2421" y="170" width="60" height="30" as="geometry" />
        </mxCell>
        <mxCell id="h221-9iBM7-Na-v-GaBF-119" style="edgeStyle=orthogonalEdgeStyle;rounded=0;orthogonalLoop=1;jettySize=auto;html=1;entryX=0.5;entryY=0;entryDx=0;entryDy=0;" edge="1" parent="WIyWlLk6GJQsqaUBKTNV-1" source="h221-9iBM7-Na-v-GaBF-115" target="h221-9iBM7-Na-v-GaBF-118">
          <mxGeometry relative="1" as="geometry" />
        </mxCell>
        <mxCell id="h221-9iBM7-Na-v-GaBF-115" value="添加回款记录" style="shape=process;whiteSpace=wrap;html=1;backgroundOutline=1;" vertex="1" parent="WIyWlLk6GJQsqaUBKTNV-1">
          <mxGeometry x="2390" y="240" width="120" height="60" as="geometry" />
        </mxCell>
        <mxCell id="h221-9iBM7-Na-v-GaBF-117" style="edgeStyle=orthogonalEdgeStyle;rounded=0;orthogonalLoop=1;jettySize=auto;html=1;entryX=0.5;entryY=0;entryDx=0;entryDy=0;" edge="1" parent="WIyWlLk6GJQsqaUBKTNV-1" source="h221-9iBM7-Na-v-GaBF-116" target="h221-9iBM7-Na-v-GaBF-84">
          <mxGeometry relative="1" as="geometry" />
        </mxCell>
        <mxCell id="h221-9iBM7-Na-v-GaBF-116" value="反审核" style="shape=process;whiteSpace=wrap;html=1;backgroundOutline=1;" vertex="1" parent="WIyWlLk6GJQsqaUBKTNV-1">
          <mxGeometry x="2390" y="380" width="120" height="70" as="geometry" />
        </mxCell>
        <mxCell id="h221-9iBM7-Na-v-GaBF-118" value="gow_back_amount" style="rounded=0;whiteSpace=wrap;html=1;" vertex="1" parent="WIyWlLk6GJQsqaUBKTNV-1">
          <mxGeometry x="2190" y="310" width="120" height="60" as="geometry" />
        </mxCell>
        <mxCell id="h221-9iBM7-Na-v-GaBF-120" value="" style="rounded=0;whiteSpace=wrap;html=1;" vertex="1" parent="WIyWlLk6GJQsqaUBKTNV-1">
          <mxGeometry x="2940" y="180" width="710" height="710" as="geometry" />
        </mxCell>
        <mxCell id="h221-9iBM7-Na-v-GaBF-121" value="发票核销" style="text;html=1;align=center;verticalAlign=middle;whiteSpace=wrap;rounded=0;" vertex="1" parent="WIyWlLk6GJQsqaUBKTNV-1">
          <mxGeometry x="3170" y="180" width="60" height="30" as="geometry" />
        </mxCell>
        <mxCell id="h221-9iBM7-Na-v-GaBF-125" style="edgeStyle=orthogonalEdgeStyle;rounded=0;orthogonalLoop=1;jettySize=auto;html=1;exitX=0.5;exitY=1;exitDx=0;exitDy=0;" edge="1" parent="WIyWlLk6GJQsqaUBKTNV-1" source="h221-9iBM7-Na-v-GaBF-122" target="h221-9iBM7-Na-v-GaBF-123">
          <mxGeometry relative="1" as="geometry" />
        </mxCell>
        <mxCell id="h221-9iBM7-Na-v-GaBF-139" style="edgeStyle=orthogonalEdgeStyle;rounded=0;orthogonalLoop=1;jettySize=auto;html=1;entryX=1;entryY=0.5;entryDx=0;entryDy=0;" edge="1" parent="WIyWlLk6GJQsqaUBKTNV-1" source="h221-9iBM7-Na-v-GaBF-122" target="h221-9iBM7-Na-v-GaBF-138">
          <mxGeometry relative="1" as="geometry" />
        </mxCell>
        <mxCell id="h221-9iBM7-Na-v-GaBF-140" value="修改资金池金额" style="edgeLabel;html=1;align=center;verticalAlign=middle;resizable=0;points=[];" vertex="1" connectable="0" parent="h221-9iBM7-Na-v-GaBF-139">
          <mxGeometry x="-0.0833" y="-3" relative="1" as="geometry">
            <mxPoint as="offset" />
          </mxGeometry>
        </mxCell>
        <mxCell id="h221-9iBM7-Na-v-GaBF-142" style="edgeStyle=orthogonalEdgeStyle;rounded=0;orthogonalLoop=1;jettySize=auto;html=1;entryX=1;entryY=0.25;entryDx=0;entryDy=0;" edge="1" parent="WIyWlLk6GJQsqaUBKTNV-1" source="h221-9iBM7-Na-v-GaBF-122" target="h221-9iBM7-Na-v-GaBF-32">
          <mxGeometry relative="1" as="geometry" />
        </mxCell>
        <mxCell id="h221-9iBM7-Na-v-GaBF-122" value="发票核销" style="shape=process;whiteSpace=wrap;html=1;backgroundOutline=1;" vertex="1" parent="WIyWlLk6GJQsqaUBKTNV-1">
          <mxGeometry x="3330" y="230" width="120" height="60" as="geometry" />
        </mxCell>
        <mxCell id="h221-9iBM7-Na-v-GaBF-126" style="edgeStyle=orthogonalEdgeStyle;rounded=0;orthogonalLoop=1;jettySize=auto;html=1;exitX=0.5;exitY=1;exitDx=0;exitDy=0;" edge="1" parent="WIyWlLk6GJQsqaUBKTNV-1" source="h221-9iBM7-Na-v-GaBF-123" target="h221-9iBM7-Na-v-GaBF-124">
          <mxGeometry relative="1" as="geometry" />
        </mxCell>
        <mxCell id="h221-9iBM7-Na-v-GaBF-134" style="edgeStyle=orthogonalEdgeStyle;rounded=0;orthogonalLoop=1;jettySize=auto;html=1;exitX=0.25;exitY=1;exitDx=0;exitDy=0;" edge="1" parent="WIyWlLk6GJQsqaUBKTNV-1" source="h221-9iBM7-Na-v-GaBF-122" target="h221-9iBM7-Na-v-GaBF-133">
          <mxGeometry relative="1" as="geometry" />
        </mxCell>
        <mxCell id="h221-9iBM7-Na-v-GaBF-123" value="确认回款" style="shape=process;whiteSpace=wrap;html=1;backgroundOutline=1;" vertex="1" parent="WIyWlLk6GJQsqaUBKTNV-1">
          <mxGeometry x="3330" y="390" width="120" height="60" as="geometry" />
        </mxCell>
        <mxCell id="h221-9iBM7-Na-v-GaBF-128" style="edgeStyle=orthogonalEdgeStyle;rounded=0;orthogonalLoop=1;jettySize=auto;html=1;" edge="1" parent="WIyWlLk6GJQsqaUBKTNV-1" source="h221-9iBM7-Na-v-GaBF-124" target="h221-9iBM7-Na-v-GaBF-127">
          <mxGeometry relative="1" as="geometry" />
        </mxCell>
        <mxCell id="h221-9iBM7-Na-v-GaBF-129" value="no" style="edgeLabel;html=1;align=center;verticalAlign=middle;resizable=0;points=[];" vertex="1" connectable="0" parent="h221-9iBM7-Na-v-GaBF-128">
          <mxGeometry x="-0.0435" y="-2" relative="1" as="geometry">
            <mxPoint as="offset" />
          </mxGeometry>
        </mxCell>
        <mxCell id="h221-9iBM7-Na-v-GaBF-132" style="edgeStyle=orthogonalEdgeStyle;rounded=0;orthogonalLoop=1;jettySize=auto;html=1;" edge="1" parent="WIyWlLk6GJQsqaUBKTNV-1" source="h221-9iBM7-Na-v-GaBF-124" target="h221-9iBM7-Na-v-GaBF-131">
          <mxGeometry relative="1" as="geometry" />
        </mxCell>
        <mxCell id="h221-9iBM7-Na-v-GaBF-124" value="是否垫资" style="rhombus;whiteSpace=wrap;html=1;" vertex="1" parent="WIyWlLk6GJQsqaUBKTNV-1">
          <mxGeometry x="3350" y="500" width="80" height="90" as="geometry" />
        </mxCell>
        <mxCell id="h221-9iBM7-Na-v-GaBF-127" value="end" style="ellipse;whiteSpace=wrap;html=1;" vertex="1" parent="WIyWlLk6GJQsqaUBKTNV-1">
          <mxGeometry x="3480" y="505" width="120" height="80" as="geometry" />
        </mxCell>
        <mxCell id="h221-9iBM7-Na-v-GaBF-131" value="通知付佣" style="shape=process;whiteSpace=wrap;html=1;backgroundOutline=1;" vertex="1" parent="WIyWlLk6GJQsqaUBKTNV-1">
          <mxGeometry x="3330" y="630" width="120" height="60" as="geometry" />
        </mxCell>
        <mxCell id="h221-9iBM7-Na-v-GaBF-133" value="gow_settlement_fund" style="rounded=0;whiteSpace=wrap;html=1;" vertex="1" parent="WIyWlLk6GJQsqaUBKTNV-1">
          <mxGeometry x="2960" y="330" width="120" height="60" as="geometry" />
        </mxCell>
        <mxCell id="h221-9iBM7-Na-v-GaBF-136" value="wtrite_off" style="rounded=0;whiteSpace=wrap;html=1;" vertex="1" parent="WIyWlLk6GJQsqaUBKTNV-1">
          <mxGeometry x="2990" y="505" width="120" height="60" as="geometry" />
        </mxCell>
        <mxCell id="h221-9iBM7-Na-v-GaBF-137" style="edgeStyle=orthogonalEdgeStyle;rounded=0;orthogonalLoop=1;jettySize=auto;html=1;entryX=0.992;entryY=0.4;entryDx=0;entryDy=0;entryPerimeter=0;" edge="1" parent="WIyWlLk6GJQsqaUBKTNV-1" source="h221-9iBM7-Na-v-GaBF-123" target="h221-9iBM7-Na-v-GaBF-136">
          <mxGeometry relative="1" as="geometry" />
        </mxCell>
        <mxCell id="h221-9iBM7-Na-v-GaBF-138" value="gow_settlement_fund" style="rounded=0;whiteSpace=wrap;html=1;" vertex="1" parent="WIyWlLk6GJQsqaUBKTNV-1">
          <mxGeometry x="2970" y="230" width="120" height="60" as="geometry" />
        </mxCell>
        <mxCell id="h221-9iBM7-Na-v-GaBF-141" style="edgeStyle=orthogonalEdgeStyle;rounded=0;orthogonalLoop=1;jettySize=auto;html=1;entryX=0.175;entryY=0;entryDx=0;entryDy=0;entryPerimeter=0;exitX=0;exitY=0.5;exitDx=0;exitDy=0;" edge="1" parent="WIyWlLk6GJQsqaUBKTNV-1" source="h221-9iBM7-Na-v-GaBF-122" target="h221-9iBM7-Na-v-GaBF-23">
          <mxGeometry relative="1" as="geometry" />
        </mxCell>
      </root>
    </mxGraphModel>
  </diagram>
</mxfile>
